<svg width="24" height="24" viewBox="0 0 24 24" fill="none" xmlns="http://www.w3.org/2000/svg">
<rect width="24" height="24" rx="4" fill="#FFB900" fill-opacity="0.08"/>
<path d="M8.66732 10.3317L5.33398 11.9984L11.7621 15.2125C11.8496 15.2562 11.8933 15.2781 11.9392 15.2867C11.9798 15.2943 12.0215 15.2943 12.0621 15.2867C12.108 15.2781 12.1517 15.2562 12.2392 15.2125L18.6673 11.9984L15.334 10.3317M8.66732 13.6651L5.33398 15.3317L11.7621 18.5458C11.8496 18.5896 11.8933 18.6114 11.9392 18.62C11.9798 18.6276 12.0215 18.6276 12.0621 18.62C12.108 18.6114 12.1517 18.5896 12.2392 18.5458L18.6673 15.3317L15.334 13.6651M5.33398 8.66508L11.7621 5.45101C11.8496 5.40728 11.8933 5.38541 11.9392 5.37681C11.9798 5.36919 12.0215 5.36919 12.0621 5.37681C12.108 5.38541 12.1517 5.40728 12.2392 5.45101L18.6673 8.66508L12.2392 11.8792C12.1517 11.9229 12.108 11.9447 12.0621 11.9534C12.0215 11.961 11.9798 11.961 11.9392 11.9534C11.8933 11.9447 11.8496 11.9229 11.7621 11.8792L5.33398 8.66508Z" stroke="#973C00" stroke-linecap="round" stroke-linejoin="round"/>
</svg>
